<?xml version="1.0" encoding="UTF-8"?>
<!DOCTYPE svg PUBLIC "-//W3C//DTD SVG 1.1//EN" "http://www.w3.org/Graphics/SVG/1.1/DTD/svg11.dtd">
<!-- Creator: CorelDRAW -->
<svg xmlns="http://www.w3.org/2000/svg" xml:space="preserve" width="8.5in" height="11in" version="1.1" style="shape-rendering:geometricPrecision; text-rendering:geometricPrecision; image-rendering:optimizeQuality; fill-rule:evenodd; clip-rule:evenodd"
viewBox="0 0 8500 11000"
 xmlns:xlink="http://www.w3.org/1999/xlink"
 xmlns:xodm="http://www.corel.com/coreldraw/odm/2003">
 <defs>
  <style type="text/css">
   <![CDATA[
    .fil0 {fill:none}
    .fil1 {fill:#6B809B}
    .fil2 {fill:#E5E100}
   ]]>
  </style>
 </defs>
 <g id="Layer_x0020_1">
  <metadata id="CorelCorpID_0Corel-Layer"/>
  <g id="_2919554774192">
   <circle class="fil0" cx="4369.08" cy="4592.11" r="3013.24"/>
   <circle class="fil0" cx="4373.9" cy="4596.93" r="2892.71"/>
   <path class="fil0" d="M5694.94 6024.91l-1250.95 742.92m-1357.34 -3648.62l1247.96 -741.13"/>
   <path class="fil0" d="M5444.24 5858.86l-1057.8 628.2m-1053.9 -3218.39l1005.29 -597.02"/>
   <path class="fil0" d="M3086.65 5990l0 -802.46m0 -86.79l0 -1981.54m2608.29 38.42l0 1005.38m0 207.31l0 1654.59"/>
   <path class="fil0" d="M4443.99 6767.83l-508.37 -291.33m-484.62 -277.71l-364.35 -208.8m1247.96 -3611.92l680.17 389.78m555.32 318.23l124.85 71.55"/>
   <path class="fil0" d="M4386.44 6487.06l-292.52 -167.63m-569.7 -326.47l-191.67 -109.84m1005.29 -3211.46l491.22 281.5"/>
   <path class="fil0" d="M5444.24 3305.7l0 857.31m0 458.02l0 1237.83m-2111.7 24.26l0 -695.58m0 -327.85l0 -1591.02"/>
   <path class="fil0" d="M3524.21 5992.95l-73.21 205.83m484.62 277.72l158.3 -157.07"/>
   <line class="fil0" x1="3332.54" y1="5187.54" x2="3086.65" y2= "5187.54" />
   <line class="fil0" x1="3086.65" y1="5100.75" x2="3332.54" y2= "4859.69" />
   <line class="fil0" x1="5444.24" y1="4163.01" x2="5694.94" y2= "4163.01" />
   <line class="fil0" x1="5694.94" y1="4370.32" x2="5444.24" y2= "4621.03" />
   <line class="fil0" x1="4829.04" y1="2953.15" x2="5014.78" y2= "2767.85" />
   <line class="fil0" x1="5444.24" y1="3305.7" x2="5570.09" y2= "3086.08" />
   <path class="fil0" d="M2741.19 4197.6l0 -525.03m-1137.84 774.03l0 377.3m1131.99 754.19l5.85 0 0 -545.51"/>
   <path class="fil0" d="M5991.81 5038.16l1.3 525.03m1135.92 -776.85l-0.93 -377.3m-1133.85 -751.38l-5.85 0.01 1.35 545.51"/>
   <path class="fil0" d="M2135.43 4629l605.76 403.58m-5.85 545.51l-1131.99 -754.19"/>
   <path class="fil0" d="M6596.5 4605.26l-606.75 -402.08m4.5 -545.52l1133.85 751.38"/>
   <path class="fil0" d="M1603.35 4446.61l1120.69 -798.11 17.15 24.08m0 525.03l-605.76 431.4"/>
   <path class="fil0" d="M7129.03 4786.34l-1118.71 800.89 -17.21 -24.04m-1.3 -525.03l604.69 -432.89"/>
   <path class="fil0" d="M3499.08 5041.67l2237.39 -2895.88m-546.57 979.23l-1369.07 1772.01"/>
   <path class="fil0" d="M5528.65 4381.71l-2314.95 2809.39m570.06 -953.12l1421.74 -1725.4"/>
   <path class="fil0" d="M4333.13 4897.03l-549.37 1340.94m-570.06 953.12l880.59 -2149.42"/>
   <path class="fil0" d="M5736.47 2145.8l-837.36 2222.14m-232.08 144.64l522.87 -1387.56"/>
   <path class="fil0" d="M3820.82 4897.03l512.31 0m-238.83 144.64l-595.21 0"/>
   <path class="fil0" d="M4899.11 4367.93l629.54 0 0 13.78m-323.15 130.87l-538.47 0"/>
   <polygon class="fil1" points="2741.19,5032.58 2135.43,4629 2741.19,4197.6 2741.19,3672.57 2724.04,3648.49 1603.35,4446.61 1603.35,4823.91 2735.34,5578.09 2741.19,5578.09 "/>
   <polygon class="fil1" points="3086.65,3119.21 3086.65,5100.75 3332.54,4859.69 3332.54,3268.67 4337.83,2671.65 4829.04,2953.15 5014.78,2767.85 4334.61,2378.07 "/>
   <polygon class="fil1" points="3332.54,5187.54 3086.65,5187.54 3086.65,5990 3451,6198.79 3524.21,5992.96 3332.54,5883.12 "/>
   <path class="fil1" d="M4094.3 5041.67l-880.59 2149.42 2314.95 -2809.39 0 -13.78 -629.54 0 837.36 -2222.14 -2237.39 2895.88 595.21 0zm-310.54 1196.3l549.37 -1340.94 -512.31 0 1369.07 -1772.01 -522.87 1387.56 538.47 0 -1421.74 1725.4z"/>
   <polygon class="fil1" points="5444.24,4621.03 5444.24,5858.86 4386.44,6487.06 4093.92,6319.43 3935.62,6476.5 4443.99,6767.83 5694.94,6024.91 5694.94,4370.32 "/>
   <polygon class="fil1" points="5444.24,4163.01 5694.94,4163.01 5694.94,3157.63 5570.09,3086.08 5444.24,3305.7 "/>
   <polygon class="fil1" points="5989.75,4203.18 6596.5,4605.26 5991.81,5038.16 5993.11,5563.19 6010.32,5587.22 7129.03,4786.34 7128.1,4409.04 5994.24,3657.66 5988.4,3657.67 "/>
   <path class="fil2" d="M4373.9 1704.21c1597.6,0 2892.71,1295.11 2892.71,2892.71 0,1597.6 -1295.11,2892.71 -2892.71,2892.71 -1597.6,0 -2892.71,-1295.11 -2892.71,-2892.71 0,-1597.6 1295.11,-2892.71 2892.71,-2892.71zm3008.42 2887.89c0,-1664.17 -1349.07,-3013.24 -3013.24,-3013.24 -1664.17,0 -3013.25,1349.07 -3013.25,3013.24 0,1664.17 1349.07,3013.25 3013.25,3013.25 1664.17,0 3013.24,-1349.07 3013.24,-3013.25z"/>
   <path class="fil2" d="M3783.76 6237.98l549.37 -1340.94 -512.31 0 1369.07 -1772.01 -522.87 1387.56 538.47 0 -1421.74 1725.4zm-570.06 953.12l2314.95 -2809.39 0 -13.78 -629.54 0 837.36 -2222.14 -2237.39 2895.88 595.21 0 -880.59 2149.42z"/>
   <polygon class="fil2" points="3524.21,5992.96 3332.54,5883.12 3332.54,5187.54 3086.65,5187.54 3086.65,5990 3451,6198.79 "/>
   <polygon class="fil2" points="2741.19,5578.09 2741.19,5032.58 2135.43,4629 2741.19,4197.6 2741.19,3672.57 2724.04,3648.49 1603.35,4446.61 1603.35,4823.91 2735.34,5578.09 "/>
   <polygon class="fil2" points="3086.65,3119.21 3086.65,5100.75 3332.54,4859.69 3332.54,3268.67 4337.83,2671.65 4829.04,2953.15 5014.78,2767.85 4334.61,2378.07 "/>
   <polygon class="fil2" points="5444.24,3305.7 5444.24,4163.01 5694.94,4163.01 5694.94,3157.63 5570.09,3086.08 "/>
   <polygon class="fil2" points="5444.24,5858.86 4386.44,6487.06 4093.92,6319.43 3935.62,6476.5 4443.99,6767.83 5694.94,6024.91 5694.94,4370.32 5444.24,4621.03 "/>
   <polygon class="fil2" points="5991.81,5038.16 5993.11,5563.19 6010.32,5587.22 7129.03,4786.34 7128.1,4409.04 5994.24,3657.66 5988.4,3657.67 5989.75,4203.18 6596.5,4605.26 "/>
  </g>
 </g>
</svg>
